#!OML:ASF X:\für Bonn\!DataBase\2005_08_12_Daniel\c3d\Daniel.ASF
:FULLY-SPECIFIED
:DEGREES
242
root 1.18744 17.0366 -0.76574 -42.2044 -83.4183 35.9487
lowerback 16.3331 -2.39932 -2.51369
upperback 3.54546 -3.89368 -1.96565
thorax -5.33029 -1.96338 0.14707
lowerneck -0.307332 1.65684 -6.64374
upperneck -2.41629 2.16988 0.684639
head -0.781831 1.12609 1.31601
rclavicle 3.73715e-014 -1.03368e-014
rhumerus -35.9225 -10.6422 -78.4333
rradius 16.9683
rwrist 14.1338
rhand -18.741 16.7813
rfingers 7.12502
rthumb 7.55512 -13.0638
lclavicle 3.73715e-014 -1.03368e-014
lhumerus -39.7241 34.676 59.4046
lradius 25.8264
lwrist -11.9122
lhand -12.4879 -2.21162
lfingers 7.12502
lthumb 13.5868 27.325
rfemur -2.19215 21.6065 21.998
rtibia 33.2805
rfoot -37.89 -21.2573
rtoes -4.58496
lfemur -10.8687 -14.6529 -19.1091
ltibia 41.2586
lfoot -22.5103 4.00589
ltoes -2.90401
243
root 1.171 17.0301 -0.760525 -42.8289 -83.5037 36.6663
lowerback 16.0288 -2.39372 -2.52393
upperback 3.46859 -3.87138 -1.93983
thorax -5.24528 -1.95087 0.162695
lowerneck -0.359549 1.65253 -6.76577
upperneck -2.2999 2.17544 0.905461
head -0.741913 1.12671 1.40878
rclavicle -1.50082e-014 -9.93923e-015
rhumerus -36.1235 -10.6238 -78.2382
rradius 16.9399
rwrist 14.306
rhand -18.8931 16.5206
rfingers 7.12502
rthumb 7.40834 -13.3297
lclavicle -1.50082e-014 -9.93923e-015
lhumerus -40.0488 34.8945 59.1293
lradius 25.5818
lwrist -11.7042
lhand -12.5892 -2.18551
lfingers 7.12502
lthumb 13.4892 27.3576
rfemur -1.91497 23.558 22.5749
rtibia 33.3403
rfoot -39.4403 -22.2952
rtoes -4.55221
lfemur -10.4677 -14.8645 -19.1952
ltibia 40.6948
lfoot -23.0073 4.24362
ltoes -2.68642
244
root 1.15421 17.0232 -0.754952 -43.5194 -83.5741 37.439
lowerback 15.7148 -2.3907 -2.57119
upperback 3.39339 -3.85606 -1.88473
thorax -5.14826 -1.94128 0.230739
lowerneck -0.302981 1.6579 -6.94744
upperneck -2.26891 2.18217 1.07633
head -0.747461 1.13009 1.49543
rclavicle -2.94201e-014 -2.5842e-015
rhumerus -36.3074 -10.6006 -77.983
rradius 16.8654
rwrist 14.4508
rhand -18.9629 16.3501
rfingers 7.12502
rthumb 7.34095 -13.5026
lclavicle -2.94201e-014 -2.5842e-015
lhumerus -40.4218 35.136 58.8958
lradius 25.3474
lwrist -11.5031
lhand -12.7364 -2.07705
lfingers 7.12502
lthumb 13.3472 27.4755
rfemur -1.57808 25.6348 23.2155
rtibia 33.4153
rfoot -41.1325 -23.4244
rtoes -4.59207
lfemur -10.0613 -15.0583 -19.2963
ltibia 40.141
lfoot -23.5358 4.45331
ltoes -2.57471
245
root 1.13688 17.0155 -0.74927 -44.1537 -83.6329 38.1759
lowerback 15.3786 -2.39161 -2.60531
upperback 3.29708 -3.84437 -1.85624
thorax -5.06394 -1.93314 0.263607
lowerneck -0.166858 1.67258 -7.01568
upperneck -2.23385 2.19545 1.2105
head -0.76334 1.13607 1.54986
rclavicle 9.0944e-015 -7.55382e-015
rhumerus -36.5461 -10.7574 -77.6866
rradius 16.7562
rwrist 14.7029
rhand -18.9205 16.2652
rfingers 7.12502
rthumb 7.38192 -13.586
lclavicle 9.0944e-015 -7.55382e-015
lhumerus -40.8202 35.3564 58.6107
lradius 25.1084
lwrist -11.2745
lhand -12.8621 -1.88738
lfingers 7.12502
lthumb 13.2261 27.673
rfemur -1.19891 27.8535 23.9228
rtibia 33.4865
rfoot -43.0072 -24.5945
rtoes -4.5238
lfemur -9.69758 -15.1981 -19.3889
ltibia 39.6161
lfoot -24.0375 4.63114
ltoes -2.46789
246
root 1.11995 17.0081 -0.742663 -44.7264 -83.6732 38.8461
lowerback 15.0668 -2.39853 -2.64497
upperback 3.19918 -3.84182 -1.81729
thorax -4.99289 -1.92915 0.31348
lowerneck 0.0330548 1.703 -7.02591
upperneck -2.26386 2.2218 1.25183
head -0.808898 1.14968 1.56339
rclavicle -3.67752e-015 7.55382e-015
rhumerus -36.697 -10.9937 -77.3304
rradius 16.5151
rwrist 14.9192
rhand -18.7895 16.2644
rfingers 7.12502
rthumb 7.50835 -13.5823
lclavicle -3.67752e-015 7.55382e-015
lhumerus -41.2 35.5315 58.4177
lradius 24.8612
lwrist -10.9222
lhand -13.0816 -1.6205
lfingers 7.12502
lthumb 13.0146 27.9535
rfemur -0.769079 29.9968 24.6447
rtibia 33.5509
rfoot -44.9181 -25.6492
rtoes -4.47328
lfemur -9.36151 -15.3383 -19.4824
ltibia 39.1285
lfoot -24.5399 4.76288
ltoes -2.25228
